<?xml version="1.0" standalone="no"?>
<!DOCTYPE svg PUBLIC "-//W3C//DTD SVG 20010904//EN"
 "http://www.w3.org/TR/2001/REC-SVG-20010904/DTD/svg10.dtd">
<svg version="1.0" xmlns="http://www.w3.org/2000/svg"
 width="1280.000000pt" height="1180.000000pt" viewBox="0 0 1280.000000 1180.000000"
 preserveAspectRatio="xMidYMid meet">
<metadata>
Created by potrace 1.15, written by Peter Selinger 2001-2017
</metadata>
<g transform="translate(0.000000,1180.000000) scale(0.100000,-0.100000)"
fill="#000000" stroke="none">
<path d="M0 5900 l0 -5900 6400 0 6400 0 0 5900 0 5900 -6400 0 -6400 0 0
-5900z m11500 0 l0 -4600 -5100 0 -5100 0 0 4600 0 4600 5100 0 5100 0 0
-4600z"/>
<path d="M2060 9724 c-272 -311 -501 -573 -508 -583 -11 -16 -1 -29 100 -117
62 -55 891 -781 1842 -1614 l1728 -1514 -29 -26 c-1053 -933 -3593 -3195
-3593 -3199 0 -7 1019 -1155 1028 -1158 4 -1 855 751 1891 1672 l1883 1674 33
-27 c18 -15 877 -767 1909 -1672 1032 -905 1882 -1646 1889 -1647 10 -2 970
1083 1015 1146 11 16 1 29 -100 117 -62 55 -891 781 -1842 1614 l-1728 1514
29 26 c1053 933 3593 3195 3593 3199 0 7 -1019 1155 -1028 1158 -4 1 -855
-751 -1891 -1672 l-1883 -1674 -33 27 c-18 15 -877 767 -1909 1672 -1032 905
-1882 1646 -1889 1647 -7 1 -235 -252 -507 -563z"/>
</g>
</svg>
